<svg width="52" height="32" viewBox="0 0 52 32" fill="none" xmlns="http://www.w3.org/2000/svg">
<g filter="url(#filter0_d_1_124)">
<path d="M6 10.5C5.17157 10.5 4.5 11.1716 4.5 12C4.5 12.8284 5.17157 13.5 6 13.5L6 10.5ZM47.0607 13.0607C47.6464 12.4749 47.6464 11.5251 47.0607 10.9393L37.5147 1.3934C36.9289 0.807611 35.9792 0.807611 35.3934 1.3934C34.8076 1.97919 34.8076 2.92893 35.3934 3.51472L43.8787 12L35.3934 20.4853C34.8076 21.0711 34.8076 22.0208 35.3934 22.6066C35.9792 23.1924 36.9289 23.1924 37.5147 22.6066L47.0607 13.0607ZM6 13.5L46 13.5L46 10.5L6 10.5L6 13.5Z" fill="white"/>
</g>
<defs>
<filter id="filter0_d_1_124" x="0.5" y="0.954041" width="51" height="30.0919" filterUnits="userSpaceOnUse" color-interpolation-filters="sRGB">
<feFlood flood-opacity="0" result="BackgroundImageFix"/>
<feColorMatrix in="SourceAlpha" type="matrix" values="0 0 0 0 0 0 0 0 0 0 0 0 0 0 0 0 0 0 127 0" result="hardAlpha"/>
<feOffset dy="4"/>
<feGaussianBlur stdDeviation="2"/>
<feComposite in2="hardAlpha" operator="out"/>
<feColorMatrix type="matrix" values="0 0 0 0 0 0 0 0 0 0 0 0 0 0 0 0 0 0 0.25 0"/>
<feBlend mode="normal" in2="BackgroundImageFix" result="effect1_dropShadow_1_124"/>
<feBlend mode="normal" in="SourceGraphic" in2="effect1_dropShadow_1_124" result="shape"/>
</filter>
</defs>
</svg>
